HIERARCHY
ROOT Hips
{
	OFFSET 0.000000 0.000000 0.000000
	CHANNELS 6 Xposition Yposition Zposition Xrotation Yrotation Zrotation
	JOINT LeftUpLeg_virtual
	{
		OFFSET 0.000000 0.000000 0.000000
		CHANNELS 3 Xrotation Yrotation Zrotation
		JOINT LeftUpLeg
		{
			OFFSET 10.205400 -3.823500 0.155100
			CHANNELS 3 Xrotation Yrotation Zrotation
			JOINT LeftLeg
			{
				OFFSET 0.708757 -12.982077 0.567790
				CHANNELS 3 Xrotation Yrotation Zrotation
				JOINT LeftFoot
				{
					OFFSET -0.708756 -10.717838 -2.184338
					CHANNELS 3 Xrotation Yrotation Zrotation
					JOINT LeftToeBase
					{
						OFFSET 0.108149 -7.191104 7.560241
						CHANNELS 3 Xrotation Yrotation Zrotation
						JOINT LeftToe_End
						{
							OFFSET 0.070230 0.081724 4.490308
							CHANNELS 3 Xrotation Yrotation Zrotation
							End Site
							{
								OFFSET 0 0 0
							}
						}
					}
				}
			}
		}
	}
	JOINT RightUpLeg_virtual
	{
		OFFSET 0.000000 0.000000 0.000000
		CHANNELS 3 Xrotation Yrotation Zrotation
		JOINT RightUpLeg
		{
			OFFSET -10.205400 -3.823500 0.005500
			CHANNELS 3 Xrotation Yrotation Zrotation
			JOINT RightLeg
			{
				OFFSET -0.708756 -12.982134 0.610632
				CHANNELS 3 Xrotation Yrotation Zrotation
				JOINT RightFoot
				{
					OFFSET 0.708754 -10.717769 -1.945823
					CHANNELS 3 Xrotation Yrotation Zrotation
					JOINT RightToeBase
					{
						OFFSET -0.108140 -7.191069 7.372968
						CHANNELS 3 Xrotation Yrotation Zrotation
						JOINT RightToe_End
						{
							OFFSET -0.070227 0.081735 4.479403
							CHANNELS 3 Xrotation Yrotation Zrotation
							End Site
							{
								OFFSET 0 0 0
							}
						}
					}
				}
			}
		}
	}
	JOINT Spine_virtual
	{
		OFFSET 0.000000 0.000000 0.000000
		CHANNELS 3 Xrotation Yrotation Zrotation
		JOINT Spine
		{
			OFFSET 0.000000 6.876099 0.125700
			CHANNELS 3 Xrotation Yrotation Zrotation
			JOINT Spine1
			{
				OFFSET 0.000000 5.730043 0.104720
				CHANNELS 3 Xrotation Yrotation Zrotation
				JOINT Spine1_split
				{
					OFFSET 0.000000 5.730043 0.104720
					CHANNELS 3 Xrotation Yrotation Zrotation
					JOINT Spine2
					{
						OFFSET 0.000000 5.730043 0.104720
						CHANNELS 3 Xrotation Yrotation Zrotation
						JOINT Neck_virtual
						{
							OFFSET 0.000000 0.000000 0.000000
							CHANNELS 3 Xrotation Yrotation Zrotation
							JOINT Neck
							{
								OFFSET 0.000000 10.314075 0.188496
								CHANNELS 3 Xrotation Yrotation Zrotation
								JOINT Head
								{
									OFFSET 0.000000 7.643700 -2.377400
									CHANNELS 3 Xrotation Yrotation Zrotation
									JOINT HeadTop_End
									{
										OFFSET 0.000000 43.788605 -13.619600
										CHANNELS 3 Xrotation Yrotation Zrotation
										End Site
										{
											OFFSET 0 0 0
										}
									}
								}
							}
						}
						JOINT LeftShoulder_virtual
						{
							OFFSET 0.000000 0.000000 0.000000
							CHANNELS 3 Xrotation Yrotation Zrotation
							JOINT LeftShoulder
							{
								OFFSET 2.196100 4.412489 0.087492
								CHANNELS 3 Xrotation Yrotation Zrotation
								JOINT LeftShoulder_split
								{
									OFFSET 2.196100 4.412489 0.087492
									CHANNELS 3 Xrotation Yrotation Zrotation
									JOINT LeftArm
									{
										OFFSET 8.771219 -2.981674 -0.026999
										CHANNELS 3 Xrotation Yrotation Zrotation
										JOINT LeftForeArm
										{
											OFFSET 8.512804 0.000000 -0.000000
											CHANNELS 3 Xrotation Yrotation Zrotation
											JOINT LeftHand
											{
												OFFSET 18.484802 0.000000 -0.000000
												CHANNELS 3 Xrotation Yrotation Zrotation
												End Site
												{
													OFFSET 0 0 0
												}
											}
										}
									}
								}
							}
						}
						JOINT RightShoulder_virtual
						{
							OFFSET 0.000000 0.000000 0.000000
							CHANNELS 3 Xrotation Yrotation Zrotation
							JOINT RightShoulder
							{
								OFFSET -2.196100 4.412496 0.070690
								CHANNELS 3 Xrotation Yrotation Zrotation
								JOINT RightShoulder_split
								{
									OFFSET -2.196100 4.412496 0.070690
									CHANNELS 3 Xrotation Yrotation Zrotation
									JOINT RightArm
									{
										OFFSET -8.771282 -2.981682 -0.094208
										CHANNELS 3 Xrotation Yrotation Zrotation
										JOINT RightForeArm
										{
											OFFSET -8.494598 0.000000 0.000000
											CHANNELS 3 Xrotation Yrotation Zrotation
											JOINT RightHand
											{
												OFFSET -18.483803 0.000000 0.000001
												CHANNELS 3 Xrotation Yrotation Zrotation
												End Site
												{
													OFFSET 0 0 0
												}
											}
										}
									}
								}
							}
						}
					}
				}
			}
		}
	}
}
MOTION
Frames: 8
Frame Time: 0.03333333
7.447461 33.896065 3.959404 0.000000 0.000000 0.000000 0.106506 4.303102 -3.843394 4.536779 11.605314 4.204524 22.864762 -8.344629 4.728997 -32.295658 3.443376 -2.216857 1.961631 -2.654905 -1.884457 0.000000 0.000000 0.000000 -0.055133 4.567006 -3.763383 -31.706110 -0.632929 -1.054840 27.612898 -1.156119 0.012513 -1.836083 -1.911537 12.152878 1.177201 1.696821 -18.091838 0.000000 0.000000 0.000000 -0.357367 11.514468 -4.344885 6.361589 -4.788859 2.367778 1.560761 -2.067145 1.825086 0.170348 -0.598400 0.099095 0.000000 0.000000 0.000000 0.765672 -0.557427 2.206565 -8.847315 5.326581 10.552751 1.283025 -7.587322 -1.678546 0.000000 0.000000 0.000000 -0.366505 -1.716954 1.908085 1.789527 0.727516 1.126958 2.628150 -3.529394 -1.948710 -3.152622 -0.140502 -81.732994 14.694295 -31.653211 1.849069 0.000000 0.000000 0.000000 0.369620 -1.879535 1.975334 2.533351 -7.100762 5.010351 -9.438724 0.506581 0.182213 2.477517 11.719538 74.025993 -2.171778 17.119261 6.185895 0.000000 0.000000 0.000000 
7.626814 34.013542 4.869275 0.000000 0.000000 0.000000 0.885413 4.351419 -4.380680 5.719849 12.247655 4.682717 21.482371 -8.395477 4.835744 -32.331281 4.832506 -3.358905 1.665770 -2.936721 -2.436793 0.000000 0.000000 0.000000 1.130073 4.366142 -4.490165 -32.744740 -0.523342 0.446372 21.984566 -0.582977 -1.783934 -3.169286 0.541193 13.032540 3.407530 1.547908 -20.270069 0.000000 0.000000 0.000000 0.258533 11.824886 -4.947092 6.058197 -5.023738 2.057703 1.624514 -2.126483 1.894420 0.207401 -0.627632 0.072738 0.000000 0.000000 0.000000 0.533623 -0.585639 2.278590 -8.872246 5.098931 11.041044 2.439792 -7.605087 -1.245067 0.000000 0.000000 0.000000 -0.475267 -1.759710 1.972811 1.913216 0.498479 1.029524 2.475457 -3.413600 -2.117801 -3.202213 -1.392625 -80.676705 14.253160 -32.787111 0.835577 0.000000 0.000000 0.000000 0.281018 -1.880105 2.026451 2.586123 -6.841261 5.886613 -9.879108 0.542053 0.296716 4.211713 11.006319 73.469531 -2.682612 17.645707 7.162332 0.000000 0.000000 0.000000 
7.739975 34.052910 5.825268 0.000000 0.000000 0.000000 1.568673 4.587847 -4.845714 6.829865 13.166697 5.598727 20.364714 -8.115758 4.506584 -32.363434 6.342341 -3.918935 1.105030 -3.305757 -2.884527 0.000000 0.000000 0.000000 2.125878 4.668907 -5.231495 -34.089911 -0.383197 1.397833 17.574939 -0.502555 -2.978185 -3.470169 2.027485 13.093942 4.157745 1.470294 -21.561386 0.000000 0.000000 0.000000 0.709470 12.233977 -5.360687 5.982672 -5.517940 1.590262 1.677808 -2.242048 2.035220 0.210629 -0.611764 0.057529 0.000000 0.000000 0.000000 0.359188 -0.650422 2.425505 -8.812952 5.008400 11.573698 3.696799 -7.401961 -1.043525 0.000000 0.000000 0.000000 -0.583245 -1.845214 2.099268 1.974355 0.259331 0.830855 2.370209 -3.307892 -2.152309 -3.359382 -2.628727 -79.816955 14.260391 -33.552925 0.235032 0.000000 0.000000 0.000000 0.166232 -1.927672 2.161453 2.683284 -6.511875 6.748547 -10.261664 0.681681 0.157273 5.826726 10.302696 72.944146 -3.368585 18.608719 8.261629 0.000000 0.000000 0.000000 
7.780101 34.009624 6.834034 0.000000 0.000000 0.000000 2.193652 5.076226 -5.179733 8.044607 14.304528 6.941733 19.397560 -7.892867 3.903388 -32.390765 7.682879 -4.283281 -0.278808 -3.702816 -3.016029 0.000000 0.000000 0.000000 2.896948 5.462432 -5.774627 -35.972031 -0.323743 1.475470 14.911971 -0.864814 -3.530750 -2.480297 2.630984 12.989478 3.882891 1.475695 -21.801382 0.000000 0.000000 0.000000 1.149305 12.724064 -5.497346 6.084306 -6.205874 1.014533 1.654421 -2.395318 2.192185 0.187422 -0.604830 0.045019 0.000000 0.000000 0.000000 0.233387 -0.741978 2.591168 -8.651831 5.070841 12.094115 4.919147 -6.920524 -1.180805 0.000000 0.000000 0.000000 -0.745544 -1.956614 2.231256 1.969075 0.067209 0.557404 2.244772 -3.184819 -2.070336 -3.697081 -3.778329 -79.196440 14.794909 -33.804901 0.132823 0.000000 0.000000 0.000000 -0.021852 -2.026551 2.328673 2.811229 -6.166510 7.555011 -10.570502 0.802526 -0.069829 7.188767 9.781631 72.420147 -4.178464 19.951922 9.494029 0.000000 0.000000 0.000000 
7.706333 33.866474 7.903411 0.000000 0.000000 0.000000 2.786421 5.783360 -5.278290 9.310204 15.554156 8.614042 18.624971 -8.386432 3.126200 -32.050089 8.673523 -5.642335 -2.738245 -4.094839 -2.723737 0.000000 0.000000 0.000000 3.367464 6.337440 -5.915777 -38.156971 -0.411641 0.966881 13.833693 -1.562336 -3.534945 -1.265862 2.511149 12.646713 3.111947 1.542033 -21.185799 0.000000 0.000000 0.000000 1.541889 13.264940 -5.270231 6.344614 -6.971808 0.427735 1.498627 -2.551965 2.307534 0.146324 -0.578517 0.038109 0.000000 0.000000 0.000000 0.133581 -0.847963 2.710462 -8.371483 5.281219 12.515357 6.174296 -6.230720 -1.643291 0.000000 0.000000 0.000000 -0.986495 -2.081307 2.296734 1.933552 -0.050987 0.231798 2.159668 -3.080276 -1.882091 -4.199681 -4.809619 -78.810110 15.811977 -33.555435 0.489781 0.000000 0.000000 0.000000 -0.285286 -2.152139 2.476045 2.961875 -5.858149 8.308944 -10.750580 0.835815 -0.275821 8.149307 9.599095 71.811987 -4.981355 21.351416 10.799061 0.000000 0.000000 0.000000 
7.536285 33.628571 9.062039 0.000000 0.000000 0.000000 3.318722 6.540324 -5.113386 10.903341 16.684118 10.064182 18.070872 -9.273287 2.074280 -31.977867 9.184139 -7.181267 -5.808775 -4.518156 -2.094018 0.000000 0.000000 0.000000 3.656780 7.264558 -5.636135 -40.023071 -0.375982 0.180970 14.067791 -2.270449 -3.124534 -0.619820 2.026134 11.917851 2.281344 1.655741 -19.998101 0.000000 0.000000 0.000000 1.866725 13.729544 -4.682758 6.672709 -7.677880 -0.077796 1.202081 -2.690246 2.328979 0.127591 -0.587078 0.051698 0.000000 0.000000 0.000000 -0.012412 -0.947917 2.733093 -8.012650 5.605955 12.775398 7.537013 -5.418311 -2.367284 0.000000 0.000000 0.000000 -1.309170 -2.195304 2.257169 1.895740 -0.059789 -0.156210 2.224151 -2.968153 -1.621964 -4.816844 -5.738544 -78.591305 17.129652 -32.938246 1.139607 0.000000 0.000000 0.000000 -0.623331 -2.277215 2.547546 3.129298 -5.623748 9.004368 -10.842660 0.716305 -0.433125 8.607603 9.834940 71.047314 -5.609085 22.326181 12.041170 0.000000 0.000000 0.000000 
7.276921 33.355034 10.289249 0.000000 0.000000 0.000000 3.465965 7.132892 -4.583896 12.489180 17.281977 11.222544 18.469149 -10.784494 1.099919 -31.698618 9.462184 -9.414436 -8.332825 -4.891891 -1.240302 0.000000 0.000000 0.000000 3.829022 8.092197 -4.976631 -41.163245 -0.064494 -0.439388 15.316300 -2.940634 -2.456809 -0.414748 1.358237 10.714635 2.235568 1.746547 -18.563329 0.000000 0.000000 0.000000 2.132739 14.022256 -3.899682 7.033690 -8.217461 -0.403009 0.772308 -2.792494 2.230094 0.138526 -0.646670 0.080328 0.000000 0.000000 0.000000 -0.273195 -1.029435 2.642978 -7.641305 5.999687 12.808475 9.093055 -4.704952 -3.200137 0.000000 0.000000 0.000000 -1.702089 -2.279537 2.115603 1.887270 0.043948 -0.614734 2.357966 -2.868711 -1.266485 -5.446124 -6.535054 -78.422736 18.471965 -32.185894 1.830829 0.000000 0.000000 0.000000 -1.003415 -2.385641 2.513641 3.324462 -5.464330 9.607333 -10.945576 0.448945 -0.484663 8.608636 10.466133 70.090104 -5.864247 22.538007 13.021534 0.000000 0.000000 0.000000 
6.923371 33.083736 11.596073 0.000000 0.000000 0.000000 3.295553 7.640887 -3.821763 14.209092 17.227861 11.668503 19.583821 -11.967975 0.279738 -32.276902 9.737250 -10.671438 -8.821836 -5.238667 -0.605768 0.000000 0.000000 0.000000 3.599026 8.636370 -4.192922 -41.815589 0.582332 -0.691594 17.451432 -3.416275 -1.495108 0.393164 0.679124 9.578659 2.812010 1.859553 -17.237811 0.000000 0.000000 0.000000 2.241636 14.094348 -3.154184 7.401739 -8.526345 -0.425072 0.245359 -2.854875 2.022334 0.167500 -0.708836 0.138976 0.000000 0.000000 0.000000 -0.683966 -1.089599 2.450343 -7.285074 6.429385 12.611780 10.944844 -4.186810 -4.006583 0.000000 0.000000 0.000000 -2.122787 -2.331445 1.896275 1.918785 0.257634 -1.106703 2.606816 -2.735574 -0.878688 -5.980567 -7.123888 -78.192723 19.533817 -31.591787 2.316839 0.000000 0.000000 0.000000 -1.382407 -2.459057 2.368916 3.549692 -5.427564 10.100432 -11.087379 0.152716 -0.567170 8.261680 11.428406 68.945992 -5.646147 21.906121 13.619842 0.000000 0.000000 0.000000 
